<svg id="Слой_1" data-name="Слой 1" xmlns="http://www.w3.org/2000/svg" viewBox="0 0 500 270.73"><defs><style>.cls-1{fill:#fff;}.cls-2{fill:#f2dd40;}.cls-3{fill:#daad46;}.cls-4{fill:#f8f3db;}.cls-5{fill:#1f8937;}.cls-6{fill:none;}</style></defs><path class="cls-1" d="M177,174.11a28.28,28.28,0,0,0-16,8.08q-4.38,4.27-4.36,9.16c0,2.25.67,3.88,2,4.87a9.83,9.83,0,0,0,5.81,1.48,17.06,17.06,0,0,0,8.79-2c1.52-.84,3-1.69,4.39-2.53a40.68,40.68,0,0,0,4-3,33,33,0,0,0,1.43,5,6.53,6.53,0,0,0,2.3,2.49,7.45,7.45,0,0,0,3.53,1c1.4.08,3.22.11,5.45.1,3.64,0,7.21-.2,10.73-.55a42.88,42.88,0,0,0,9.14-1.79,17.23,17.23,0,0,0,6.5-3.78,8.91,8.91,0,0,0,2.43-6.52q-3,1-6.32,2t-6.68,1.65Q207,190.5,204,191a28.16,28.16,0,0,1-4.92.53c-1.53,0-2.87,0-4-.11a5.18,5.18,0,0,1-2.64-.87,4.37,4.37,0,0,1-1.59-2.24,15.66,15.66,0,0,1-.55-4.63v-.13a2.47,2.47,0,0,1,.17-.75c.11-.41.29-1,.52-1.75s.52-1.92.86-3.26l-.71-3.25-7.73,3.91Q183.37,174.08,177,174.11Zm-8.38,16.31a8.23,8.23,0,0,1-1.93.26c-.94,0-1.53-.33-1.76-1a4.63,4.63,0,0,1,1.21-2.88,20,20,0,0,1,2.81-3,23.39,23.39,0,0,1,3.68-2.39,14.21,14.21,0,0,1,3.69-1.27,13,13,0,0,1,3.34-.64c1.29,0,1.94.45,1.94,1.37a4.46,4.46,0,0,1-1.57,2.88Q173.93,189,168.65,190.42Z"/><path class="cls-1" d="M254.14,177.4q-.33,3.63-4.19,7a39.52,39.52,0,0,1-6.49,4.91,13.79,13.79,0,0,1-6.85,2c-.94,0-1.53-.33-1.76-1a6.62,6.62,0,0,1,1.56-3.38,17.24,17.24,0,0,1,3.33-3.15,16.59,16.59,0,0,1,4.22-2.39,13.84,13.84,0,0,1,4.57-.9c1.87.16,2.87.7,3,1.61a9.43,9.43,0,0,0,.69-3.13c0-2.83-1.78-4.25-5.3-4.23a28.28,28.28,0,0,0-16,8.08q-4.38,4.27-4.36,9.16c0,2.42.61,4.08,1.79,5s3.29,1.36,6,1.35A19.17,19.17,0,0,0,244.2,196a53.1,53.1,0,0,0,7.54-5.41,16.69,16.69,0,0,0,1.78,4.62,7.07,7.07,0,0,0,2.82,2.49,11.13,11.13,0,0,0,4.41,1c1.88.15,4.16.23,6.86.21a74.55,74.55,0,0,0,8.27-.53,34.4,34.4,0,0,0,8.09-1.67,16.17,16.17,0,0,0,6.14-3.65,8.31,8.31,0,0,0,2.43-6.27,24.77,24.77,0,0,1-9.83,3.55q-5.1.53-12.49.55c-3.52,0-5.93-.6-7.23-1.84a7,7,0,0,1-2-5.25v-.63l1.83-24.54L254.07,160Z"/><path class="cls-1" d="M323.56,177.09q-.33,3.63-4.19,7a40.67,40.67,0,0,1-6.49,4.91,13.88,13.88,0,0,1-6.85,2c-.94,0-1.53-.33-1.76-1a6.61,6.61,0,0,1,1.56-3.39,16.9,16.9,0,0,1,3.33-3.14,16.33,16.33,0,0,1,4.22-2.4,13.84,13.84,0,0,1,4.57-.9q2.81.24,3,1.62a9.53,9.53,0,0,0,.69-3.14c0-2.83-1.78-4.24-5.3-4.23a28.34,28.34,0,0,0-16,8.08q-4.38,4.27-4.36,9.16,0,3.63,1.79,5c1.29.91,3.29,1.36,6,1.35a19.27,19.27,0,0,0,9.85-2.42,53.14,53.14,0,0,0,7.54-5.42,16.69,16.69,0,0,0,1.78,4.62,6.89,6.89,0,0,0,2.83,2.49,11,11,0,0,0,4.4,1c1.88.15,4.16.23,6.86.22a74.67,74.67,0,0,0,8.27-.54,34.4,34.4,0,0,0,8.09-1.66,16.32,16.32,0,0,0,6.14-3.66,8.28,8.28,0,0,0,2.43-6.27,24.61,24.61,0,0,1-9.83,3.55q-5.1.53-12.49.55c-3.52,0-5.93-.6-7.23-1.84a7,7,0,0,1-2-5.25v-.62l1.83-24.55-8.79,1.67Z"/><path class="cls-1" d="M367.5,184.28v1.87q0,6.76,2.85,9.5,3,2.63,10.93,2.58a66.73,66.73,0,0,0,8.09-.53,35.39,35.39,0,0,0,7.73-2,8.9,8.9,0,0,0,3-2q1.41-1.5,2.62-6A32.12,32.12,0,0,1,398,189q-2.64.64-5.62,1.15t-6,.78c-1.88.18-3.58.27-5.11.27q-3.87,0-5.46-1.1a4.78,4.78,0,0,1-1.42-3.75q0-2.51.15-6.13.33-3.63.66-8.51a10.47,10.47,0,0,0-5.28-1.48ZM370.58,164a2.52,2.52,0,0,0,1.06,2,5.55,5.55,0,0,0,3,.74,4.76,4.76,0,0,0,2.82-.76,2.48,2.48,0,0,0,1.22-2,2.18,2.18,0,0,0-1.24-1.87,4.32,4.32,0,0,0-2.82-.87,5.13,5.13,0,0,0-3,.89A2.24,2.24,0,0,0,370.58,164Z"/><path class="cls-1" d="M419.09,166.27l-10.53,6.81-1.31,21.16a2.09,2.09,0,0,0,1.23,1.74l3,1.62a8.59,8.59,0,0,0,5.63-1.78c2.45-2.26,4.49-4.11,6.13-5.53s2.86-2.48,3.68-3.15q2.1-1.89,3.51-1.89a3.79,3.79,0,0,1,.71,1.87v.38c-.23,1.67-.4,2.75-.52,3.25a4,4,0,0,0,1.61,4.5,15,15,0,0,0,4.05,2,26.23,26.23,0,0,0,5.11,1c1.76.15,3.23.23,4.4.23,2,0,4.1-.11,6.33-.28a55.33,55.33,0,0,0,6.69-.66,32.5,32.5,0,0,0,6.15-1.78,13.89,13.89,0,0,0,4.73-3.4,7.69,7.69,0,0,0,2.1-3,14.93,14.93,0,0,0,.86-3.38,56.39,56.39,0,0,1-12.82,3.81,84.65,84.65,0,0,1-14.07,1.19c-1.06,0-2.06,0-3-.11a4.89,4.89,0,0,1-2.46-.87,6.71,6.71,0,0,1-1.6-2.25,13.87,13.87,0,0,1-.54-4.37l0-6.14a7.87,7.87,0,0,0-1.25-2.87c-.35-.67-1.35-1-3-1a10.33,10.33,0,0,0-5.45,1.78,27.62,27.62,0,0,0-4.73,3.4L419.16,182c-1.41,1-2.75,2-4,3-.82,0-1.23-.5-1.24-1.5v-1.5a7.79,7.79,0,0,1,.34-1.76Zm34,10.62h.53a5.67,5.67,0,0,0,2.11-.51,2.46,2.46,0,0,0,1-1.88,1.82,1.82,0,0,0-1.06-1.5,4.67,4.67,0,0,0-2.3-.74c-.46.09-.87.17-1.23.26a3,3,0,0,0-1.05.5,1.81,1.81,0,0,0-1.05,1.51,2.45,2.45,0,0,0,1.07,1.87A3.76,3.76,0,0,0,453.09,176.89Z"/><path class="cls-2" d="M318.29,116.57a1.68,1.68,0,0,0-.42-.56,4.31,4.31,0,0,0-2-1.48c-.07,0-.07-.07-.14-.07-2.73-1.12-2.1-3.16-2.1-3.16-14.24-5-23.15,4.42-34.52,4.42s-14.38-8.91-14.38-8.91h1.05c0-4.27-5-6.17-5-6.17,1.27-6.94-1.75-8.91-1.75-8.91-3.16,3-1.68,8.63-1.68,8.63-6,1.4-5.2,6.67-5.2,6.67h1.13c-8.84,14.45-19.44,4.77-26.45-1.76s-15.65-2.1-15.65-2.1c-4.42,2.38-6.52,6-6.94,9.47a11.45,11.45,0,0,0,1.47,7,9.35,9.35,0,0,0,1.83,2.25,8.33,8.33,0,0,0,2.31,1.54c6.88,3.09,15.58-3.23,15.58-3.23s1.54,1.13,2.59.5a1.7,1.7,0,0,0,.63-1.9.31.31,0,0,0-.07-.21,7,7,0,0,1,.77,1.33,13.77,13.77,0,0,1,1.13,2.39c.21.56.42,1.05.7,1.68a26.46,26.46,0,0,0,1.75,2.88V127c.49.63,1,1.33,1.62,2.1a7.14,7.14,0,0,0,1,1.34,27.93,27.93,0,0,0,12.13,8.77l.08.07h.07a4.73,4.73,0,0,0,1.19.49,4.61,4.61,0,0,1,.63.14,3.14,3.14,0,0,1-.07.77c-.28,2.24-2.39,5.33-3.93,7.44a12,12,0,0,1-.77,1,13.56,13.56,0,0,1-1.12,1.33,43.42,43.42,0,0,0,30.51-.14,6,6,0,0,1-.7-.91c-.28-.35-.56-.84-.91-1.33v-.07c-1.33-2.11-2.81-5-3.65-6.6a13.11,13.11,0,0,0-.63-1.33,8.92,8.92,0,0,0,1.4-.07c.35,0,.63-.07.92-.07s.56-.07.77-.14.63-.14.91-.21a7.38,7.38,0,0,0,1.33-.35,20,20,0,0,0,4.14-1.83,16.75,16.75,0,0,0,1.47-.91c5-3.16,9.4-8.21,14.25-13.4,8.06-8.7,25.11-5.19,25.11-5.19A4.33,4.33,0,0,0,318.29,116.57Zm-102,4.7a1.37,1.37,0,0,1-.57.14,4.23,4.23,0,0,1-1.33,0c-3.86-.35-5.54-4.07-5.54-4.07s-3.93-7.86,5.61-10.74c9.33-2.8,13.26,9.69,13.26,9.69-4.7-2.81-6.8,3.15-10.59,4.77Z"/><path class="cls-3" d="M273.6,149.31c-.28-.36-.56-.85-.91-1.34v-.07a43.14,43.14,0,0,1-27,.14c-.28.35-.49.7-.77,1a13.56,13.56,0,0,1-1.12,1.33,43.42,43.42,0,0,0,30.51-.14A6,6,0,0,1,273.6,149.31Z"/><path class="cls-3" d="M318.71,117.81s-17-3.51-25.11,5.19c-4.85,5.19-9.26,10.24-14.25,13.4a16.75,16.75,0,0,1-1.47.91,19.4,19.4,0,0,1-4.14,1.82,7.38,7.38,0,0,1-1.33.35c-.28.07-.56.14-.91.21a2.16,2.16,0,0,1-.7.07,4.2,4.2,0,0,1-1,.15,8.92,8.92,0,0,1-1.4.07s1.75,3.29,2.11,4.13c-3.86,1.9-15.58,2.74-21.61-1.19.07-.28.77-2.87.77-3.09a4.61,4.61,0,0,0-.63-.14,4.73,4.73,0,0,1-1.19-.49h-.07l-.08-.07a27.76,27.76,0,0,1-12.13-8.77,7.11,7.11,0,0,1-1-1.33c-.64-.77-1.13-1.47-1.62-2.1v-.07a27.46,27.46,0,0,1-1.75-2.88c-.28-.63-.49-1.12-.7-1.68a13.12,13.12,0,0,0-1.13-2.39c-.21-.35-.42-.7-.7-1.12a1.68,1.68,0,0,1-.63,1.89c-1,.63-2.59-.49-2.59-.49s-8.7,6.32-15.58,3.23a8.33,8.33,0,0,1-2.31-1.54,9.75,9.75,0,0,1-1.83-2.25,11.51,11.51,0,0,1-1.47-7,9.61,9.61,0,0,0,10.1,8.77,4.23,4.23,0,0,0,1.33,0,1.37,1.37,0,0,0,.57-.14l.84-.21a25.26,25.26,0,0,0,8.35-3.71s1.54,1.12,2.59.49a1.69,1.69,0,0,0,.63-1.9c2.74,4.28,1.2,4.14,6.88,11.58A27.65,27.65,0,0,0,249.19,137l.77.21c.21.07.35.07.63.14a37.55,37.55,0,0,0,14.1.42,34.15,34.15,0,0,0,3.44-.77,2.05,2.05,0,0,0,.7-.21c.63-.21,1.33-.42,2-.7a5.49,5.49,0,0,0,1-.35c6.94-2.88,14.38-7.79,21.82-15.58,3.92-4.07,9.68-5.47,14.66-5.75v-.07a50.62,50.62,0,0,1,7.64.21,4.37,4.37,0,0,1,2,1.47,1.68,1.68,0,0,1,.42.56A4.43,4.43,0,0,1,318.71,117.81Z"/><path class="cls-3" d="M238.87,60.27C225,71,235.46,79.71,254,76.07c2.91-.57,10.46,1.16,6.09,3.19-18.59,8.65-43.94-10.05-23.43-19.65C237.14,59.37,239.17,59.42,238.87,60.27Z"/><path class="cls-3" d="M268.64,55.32c3.74-.64,16.84,2.54,8.1,4.47-4.7,0-5.4-2.65-8.62-2.84C266.26,56.65,265.56,55.66,268.64,55.32Z"/><path class="cls-2" d="M316.94,109.81c-2.3,2.23-3-1.9-3-1.9,12.19-15.72.48-24-6.28-24.86a83.54,83.54,0,0,0-17.18.33c-37.64,6.72-41.48,6.49-50.91,5.53-26.83-2.71-26.83-21.1-17.82-30C232.4,48.46,255,52,262.93,54.33c2.26.67-.06,1.67-.08,1.67-50.69-5.49-41.53,18.91-31.2,24.48,11.13,6,23.3,4.82,33,2.77,20.9-4.41,36-12.79,49.63-4.25C323.55,84.81,328.06,99.05,316.94,109.81Z"/><path class="cls-1" d="M124.31,190.27c1.68.21,4.28.49,5.75.49Z"/><path class="cls-1" d="M142.83,190.2a12.54,12.54,0,0,1-1.68.14c-3,.28-6.6.42-10.81.42h-.28c-1.47,0-4.07-.28-5.75-.49-.21,0-.42-.07-.63-.07a3.5,3.5,0,0,1-.77-.07c-4.07-.91-6.11-3.79-6.11-8.49a27.7,27.7,0,0,1,2-10.94c1.19-3.09,2.52-6,3.93-8.91l.42-.84c1.61-3.23,3.08-6.53,4.42-9.75a26.16,26.16,0,0,0,2-10.53c0-.91-.07-2.1-.14-3.43a25.77,25.77,0,0,0-.63-4.07c-.21-1.41-.49-2.67-.77-3.79a10.91,10.91,0,0,0-1.12-2.67,13.34,13.34,0,0,0-5.34,3.58,27,27,0,0,0-4.06,5.82,31.33,31.33,0,0,0-2.81,6.74,23.7,23.7,0,0,0-1.26,6.59c-.21,2.11-.49,4.35-.78,6.81s-.49,4.77-.84,7.22-.63,4.7-1,6.88c-.35,1.82-.7,3.44-1,4.84l-.21.84a36.7,36.7,0,0,1-1.48,4.56,15,15,0,0,1-.91,2,26.89,26.89,0,0,1-2.94,4.35l3.29-.5,2.95-.42h.21l1.19,4.42a17.19,17.19,0,0,0,1.76,4.63,7.11,7.11,0,0,0,2.87,2.53,10.83,10.83,0,0,0,4.35,1c1.9.14,4.21.21,6.88.21a57.83,57.83,0,0,0,6.73-.42,12.9,12.9,0,0,0,1.55-.14,34.94,34.94,0,0,0,8.06-1.68,16.06,16.06,0,0,0,6.18-3.65,8.3,8.3,0,0,0,2.45-6.25A24.88,24.88,0,0,1,142.83,190.2Zm-26.38-24.06.56-6.45.43-4.42c.07-1.13.21-2.39.42-3.79a40.19,40.19,0,0,1,.84-4.21c.42-1.34.77-2.6,1.19-3.79a9.14,9.14,0,0,1,1.89-2.67,4.32,4.32,0,0,1,1,2.39,13.14,13.14,0,0,1,.28,3,19.67,19.67,0,0,1-.28,3.5c-.14,1.13-.21,2.25-.35,3.3-.71,2.32-1.48,4.35-2.18,6.1-.28.78-.63,1.55-.91,2.18A22.87,22.87,0,0,1,116.45,166.14Z"/><path class="cls-1" d="M92.79,161.09,99,86l-20.9,24.41v.07l-1.13,1.26v.07l-7.29,8.42v.49c2.8,1,5,1.55,6.66,2.18-1.75,21.75-7.85,58.09-29.18,64.26a.39.39,0,0,1-.42.07c-4.84,1.4-10.53,1.12-17.12-1.26a16.58,16.58,0,0,1-2.24-.85A14.49,14.49,0,0,0,33,194.63a14.34,14.34,0,0,0,7.78,3.5h.14a35.92,35.92,0,0,0,8.84.35c7.72-.42,13.68-7.15,16.56-14.38.56-1.26,1-2.66,1.61-4.14.29-.84.64-1.75,1-2.73,1.33-.14,2.66-.35,3.86-.56a66.17,66.17,0,0,0,10-2.67l-2.67,24.48,9.61-.14,2.39-28.76c11.78-7.23,14-16.56,14-16.56A113.32,113.32,0,0,1,92.79,161.09Zm-9.05,4.35c-3.51,1.54-6.6,2.67-9,3.58-1.33.42-2.46.84-3.3,1.12,2.25-6.38,4.63-13.54,6.81-20.48a.24.24,0,0,0,.07-.14c6-18.66,11-36.13,11-36.13Z"/><path class="cls-4" d="M261.12,101.26c1.69.77,6.12,5.67,2.05,4-1.92-1.29-1.46-2.57-2.71-3.54C259.79,101.14,259.78,100.55,261.12,101.26Z"/><path class="cls-3" d="M299.9,113.9a60.42,60.42,0,0,0-19.56,9.1c-15.16,10.38-28.35,6.45-38.1-2-7.15-6.1-14.8-13.89-20.41-15.15,1.75.63,5.19,2.74,10.1,9.75,12.49,17.61,28.48,31.36,51.56,8.28a38.12,38.12,0,0,1,16.15-10Z"/><path class="cls-4" d="M299.9,113.9a30.34,30.34,0,0,0-5.54,2c-.21.07-.42.21-.63.28a62.17,62.17,0,0,0-12.91,7c-15.08,10.31-28,6.36-38.06-1.72-6.38-5.13-12.91-11.79-18-14.5a12.88,12.88,0,0,0-4.44-1.37c4.31-.69,16.61,9.39,23.93,15.21,9.73,7.75,18.22,12.89,35.34,1A49.44,49.44,0,0,1,299.9,113.9Z"/><path class="cls-4" d="M283,116.29c-8.84,2.34-15.67-.4-19.16-9.72h-2.71s2,11,11.21,12a30,30,0,0,0,12.87-1.77c4.39-1.48,13.06-5.24,14.14-5.63C302.67,110,290.39,114.34,283,116.29Z"/><path class="cls-5" d="M270.8,139.76l-.07.07c-.29,0-.57.08-.92.08A4.2,4.2,0,0,0,270.8,139.76Z"/><path class="cls-5" d="M271.78,135.63v.07a5.49,5.49,0,0,1-1,.35Z"/><line class="cls-6" x1="299.77" y1="113.88" x2="299.63" y2="114.02"/></svg>