<svg version="1.1" id="Layer_1" xmlns="http://www.w3.org/2000/svg" xmlns:xlink="http://www.w3.org/1999/xlink" x="0px" y="0px"
	 width="100%" viewBox="0 0 101 90" enable-background="new 0 0 101 90" xml:space="preserve">
<path fill="#F8F8FE" opacity="1.000000" stroke="none" 
	d="
M71.000000,91.000000 
	C47.333336,91.000000 24.166676,91.000000 1.000009,91.000000 
	C1.000006,61.000008 1.000006,31.000019 1.000003,1.000021 
	C34.666653,1.000014 68.333305,1.000014 101.999969,1.000007 
	C101.999977,30.999979 101.999977,60.999958 101.999985,90.999969 
	C91.833336,91.000000 81.666664,91.000000 71.000000,91.000000 
M27.189209,58.718246 
	C27.359161,58.867073 27.552679,58.972733 27.988417,59.706493 
	C29.992874,62.135792 31.997332,64.565086 34.004143,67.711617 
	C38.202042,71.482361 36.385098,76.112732 35.165276,80.657768 
	C35.812565,80.839928 36.459854,81.022079 37.107147,81.204239 
	C37.745956,79.781174 38.384766,78.358101 39.467224,76.985466 
	C39.467224,76.985466 39.911850,77.026375 40.078545,77.484436 
	C40.256828,77.781563 40.515858,77.964111 41.276276,78.637611 
	C43.187038,79.037331 45.097797,79.437050 47.732689,80.002998 
	C48.847794,79.685570 49.962902,79.368134 51.853436,78.997955 
	C53.408459,78.216820 56.636303,80.824188 56.330673,76.022324 
	C56.062534,75.646713 55.794395,75.271095 55.607994,74.256439 
	C56.269054,73.080635 56.682888,71.619133 57.642708,70.788589 
	C59.632931,69.066414 61.913143,67.679367 64.747643,66.000153 
	C66.505203,64.006088 68.262756,62.012024 70.573776,59.756161 
	C71.471275,58.931000 72.368774,58.105839 73.870430,57.146275 
	C74.579201,56.762646 75.287971,56.379017 76.678535,56.017990 
	C77.477943,55.701599 78.277359,55.385208 79.887794,55.005188 
	C81.244255,54.961803 82.600723,54.918415 84.633728,54.996067 
	C85.435135,54.306782 86.236542,53.617496 87.442375,52.412899 
	C87.970589,51.303143 88.498795,50.193382 89.389580,48.751053 
	C89.625771,48.516586 89.806671,48.245258 90.398529,47.746143 
	C90.486237,47.440403 90.573936,47.134659 90.783150,46.067287 
	C90.840576,45.041580 90.898003,44.015873 91.349174,42.388844 
	C91.127663,40.262188 90.906151,38.135532 90.821999,35.325596 
	C87.874115,32.606754 84.926231,29.887909 81.059792,27.044102 
	C73.383926,28.082344 65.708061,29.120586 57.237331,30.049788 
	C54.159348,30.643782 51.081367,31.237776 47.770466,31.370207 
	C47.513699,30.920267 47.256927,30.470327 47.061062,29.596844 
	C47.061062,29.596844 47.096981,29.170452 47.550354,29.129051 
	C47.550354,29.129051 47.985695,28.995861 48.593304,28.915501 
	C48.888527,28.487930 49.183746,28.060358 49.478970,27.632790 
	C48.926075,27.447601 48.373177,27.262411 46.944004,27.016018 
	C44.300953,27.118114 41.657902,27.220211 38.268826,27.107754 
	C37.494244,27.106691 36.719666,27.105631 35.997719,27.023212 
	C35.997719,27.023212 36.027573,26.931025 35.546772,26.432068 
	C34.639576,26.335819 33.732380,26.239571 32.231804,26.071461 
	C31.780302,25.729977 31.328800,25.388493 31.364891,24.693577 
	C30.583824,23.517405 29.802757,22.341232 29.553165,20.788414 
	C30.097610,19.865223 30.642054,18.942034 31.786894,17.905378 
	C31.937384,16.946096 32.087872,15.986815 32.253361,14.432219 
	C32.828907,13.901497 33.404453,13.370775 34.905659,12.981104 
	C38.892742,12.977786 42.881306,13.020557 46.864391,12.892693 
	C47.223045,12.881180 47.546322,11.767529 46.991375,11.067253 
	C43.351562,10.993845 39.711754,10.920437 35.541092,10.257538 
	C34.251537,10.171359 32.777969,9.637316 31.704952,10.078175 
	C27.531132,11.793036 22.272213,11.838840 19.786879,17.709295 
	C18.271063,21.851330 17.289888,25.976532 20.318684,30.652777 
	C23.576500,33.819820 27.407434,35.507355 32.253757,35.549465 
	C32.452801,35.773407 32.696892,35.924652 32.998878,35.999229 
	C32.998878,35.999229 32.993362,36.014828 32.997803,36.683052 
	C33.336296,37.327213 33.674793,37.971371 34.013290,38.615532 
	C34.686909,37.852093 35.360523,37.088654 36.674786,36.185642 
	C37.105469,36.241463 37.536156,36.297287 37.996326,37.043785 
	C38.594296,38.330376 39.192265,39.616966 39.790234,40.903561 
	C40.227837,40.835167 40.665440,40.766773 41.103039,40.698383 
	C41.415558,39.253815 41.728077,37.809250 42.790977,36.150364 
	C43.825512,36.178413 44.860050,36.206467 45.949604,36.930538 
	C45.981861,37.630478 46.014118,38.330414 45.980690,39.678120 
	C45.916958,40.107235 45.853230,40.536350 45.158497,41.108013 
	C44.468941,42.750980 43.779385,44.393951 43.013237,46.800957 
	C42.986195,47.823109 42.959152,48.845257 42.273018,49.998394 
	C40.888596,50.687363 39.504173,51.376331 37.662033,52.146729 
	C37.364597,52.268932 37.136246,52.469685 36.185959,52.863708 
	C35.125301,52.949337 34.064648,53.034966 32.415257,52.831955 
	C31.628952,52.519852 30.842649,52.207748 29.828743,51.445744 
	C29.529339,51.318417 29.229935,51.191093 28.670120,50.542995 
	C28.142166,50.322144 27.614210,50.101292 26.862253,49.402405 
	C26.553017,48.981937 26.243782,48.561470 25.951162,47.314018 
	C25.616999,45.541473 25.533518,43.662468 24.844688,42.040550 
	C24.491379,41.208645 22.827034,40.146896 22.149446,40.372612 
	C18.836573,41.476170 15.599433,42.859657 12.446510,44.375092 
	C9.646268,45.721016 7.849917,47.693882 10.007087,51.749992 
	C10.058925,52.490093 10.110764,53.230198 10.055152,54.558407 
	C10.325620,55.052341 10.596087,55.546272 11.056341,56.568119 
	C11.353024,56.734432 11.649709,56.900745 11.845405,57.112854 
	C11.845405,57.112854 11.818488,57.220421 11.909540,57.967297 
	C13.948346,58.567814 15.987151,59.168335 18.710230,59.817314 
	C20.037365,59.485672 21.364502,59.154034 23.364820,58.903152 
	C23.915071,58.588032 24.465324,58.272911 25.462025,57.865440 
	C25.462025,57.865440 25.899235,57.736244 26.434343,58.102348 
	C26.613678,58.222958 26.793015,58.343571 27.189209,58.718246 
M57.513889,12.999969 
	C56.668022,13.088980 55.822159,13.177992 54.976292,13.267004 
	C54.968933,13.471291 54.961571,13.675578 54.954212,13.879866 
	C56.714649,14.305984 58.475090,14.732102 60.235531,15.158221 
	C60.337967,14.853539 60.440407,14.548858 60.542843,14.244176 
	C59.772076,13.835811 59.001312,13.427446 57.513889,12.999969 
z"/>
<path fill="#F0DD40" opacity="1.000000" stroke="none" 
	d="
M42.932106,49.867409 
	C42.959152,48.845257 42.986195,47.823109 43.333008,46.296028 
	C44.476929,44.887268 45.301083,43.983433 46.348854,42.891087 
	C46.717632,42.147289 46.862793,41.591999 47.300060,41.174328 
	C48.146606,42.473843 48.701042,43.635742 49.168640,45.198502 
	C49.116119,46.414440 49.150440,47.229519 49.172199,48.385544 
	C50.425758,50.529377 51.691875,52.332256 53.168732,54.383858 
	C54.599018,54.380337 55.818562,54.128094 57.027653,53.911362 
	C57.017200,53.946873 56.986588,54.014278 57.094414,54.235130 
	C57.405998,54.727795 57.669762,54.915119 57.992573,55.400066 
	C56.657887,58.171207 55.324169,60.560234 53.594635,62.968407 
	C51.123737,63.313187 49.048660,63.638821 46.863770,63.754147 
	C46.554565,63.280750 46.295273,63.107063 45.980774,63.018135 
	C45.985474,63.013500 45.960869,63.038467 45.950001,62.720825 
	C44.953663,61.212158 44.121880,59.833847 42.948895,58.871342 
	C40.873440,57.168297 39.092693,55.665215 41.527870,52.888687 
	C42.230629,52.087421 42.476677,50.885593 42.932106,49.867409 
z"/>
<path fill="#EDDD48" opacity="1.000000" stroke="none" 
	d="
M58.032196,30.158829 
	C65.708061,29.120586 73.383926,28.082344 81.504585,27.506313 
	C80.230545,28.646967 78.541130,29.416990 76.785507,29.980869 
	C74.546326,30.700056 72.253639,31.252653 69.756821,32.002575 
	C69.318115,32.397186 69.106590,32.666279 68.472427,32.954884 
	C65.372444,33.261276 62.695103,33.548157 59.959732,33.528553 
	C59.278530,32.200989 58.655365,31.179907 58.032196,30.158829 
z"/>
<path fill="#E6DD5F" opacity="1.000000" stroke="none" 
	d="
M57.634766,30.104307 
	C58.655365,31.179907 59.278530,32.200989 59.599655,33.724709 
	C55.885818,34.860970 52.474030,35.494595 48.667076,36.077808 
	C47.479469,36.096436 46.687027,36.165478 45.894585,36.234520 
	C44.860050,36.206467 43.825512,36.178413 42.167416,36.122231 
	C41.362911,36.044094 41.181965,35.994091 40.759819,35.683952 
	C39.338737,35.262138 38.158855,35.100456 36.984474,34.592018 
	C36.986542,33.551723 36.983112,32.858173 37.322895,32.232185 
	C38.790928,32.468441 39.915749,32.637135 41.431046,32.845631 
	C43.882141,32.534210 45.942760,32.182991 48.003384,31.831768 
	C51.081367,31.237776 54.159348,30.643782 57.634766,30.104307 
z"/>
<path fill="#FCF5EB" opacity="1.000000" stroke="none" 
	d="
M29.021690,21.165060 
	C29.802757,22.341232 30.583824,23.517405 30.821930,24.875242 
	C29.916082,25.612825 29.553198,26.168743 28.990759,27.022572 
	C28.143469,27.573673 27.495733,27.826868 26.541945,28.065651 
	C25.828684,28.018826 25.421476,27.986408 24.878649,27.663044 
	C24.438141,26.586517 24.133253,25.800938 23.886517,24.645775 
	C23.544134,22.864370 23.143600,21.452549 22.798475,19.704243 
	C22.908781,18.916485 22.963678,18.465212 23.338093,17.885984 
	C26.517860,16.847866 29.378111,15.937698 32.238361,15.027533 
	C32.087872,15.986815 31.937384,16.946096 31.290974,17.671665 
	C27.923803,17.595436 27.013933,18.686144 29.021690,21.165060 
z"/>
<path fill="#E9DB58" opacity="1.000000" stroke="none" 
	d="
M69.984016,31.877056 
	C72.253639,31.252653 74.546326,30.700056 76.785507,29.980869 
	C78.541130,29.416990 80.230545,28.646967 81.963867,27.568796 
	C84.926231,29.887909 87.874115,32.606754 90.415527,35.666164 
	C89.330757,36.006702 88.652451,36.006672 87.664337,35.878433 
	C85.600815,34.814037 83.847115,33.877853 81.839096,32.656914 
	C80.061699,32.312359 78.538628,32.252563 76.586700,32.145065 
	C74.435493,32.151722 72.713120,32.206081 70.741852,32.157288 
	C70.323303,31.995113 70.153656,31.936085 69.984016,31.877056 
z"/>
<path fill="#EFD95E" opacity="1.000000" stroke="none" 
	d="
M42.602562,49.932899 
	C42.476677,50.885593 42.230629,52.087421 41.527870,52.888687 
	C39.092693,55.665215 40.873440,57.168297 42.948895,58.871342 
	C44.121880,59.833847 44.953663,61.212158 45.591965,62.708496 
	C42.829399,61.677563 40.413994,60.341316 37.812065,58.736366 
	C36.099491,57.623211 34.573448,56.778759 33.035484,55.583099 
	C33.017036,54.528126 33.010513,53.824360 33.003990,53.120594 
	C34.064648,53.034966 35.125301,52.949337 36.824615,52.811188 
	C37.778255,52.618633 37.997082,52.387512 38.119751,52.065300 
	C39.504173,51.376331 40.888596,50.687363 42.602562,49.932899 
z"/>
<path fill="#E9DE51" opacity="1.000000" stroke="none" 
	d="
M25.014267,27.953991 
	C25.421476,27.986408 25.828684,28.018826 26.768948,28.328781 
	C29.863499,29.671150 32.424995,30.735979 35.314842,31.881107 
	C36.088688,32.029144 36.534184,32.096886 36.979683,32.164627 
	C36.983112,32.858173 36.986542,33.551723 36.577736,34.608326 
	C35.079308,35.007568 33.993114,35.043758 32.680367,35.071014 
	C32.453812,35.062080 32.017166,35.184414 32.017166,35.184414 
	C27.407434,35.507355 23.576500,33.819820 20.552433,30.289814 
	C22.195545,29.269230 23.604906,28.611610 25.014267,27.953991 
M27.798674,31.399250 
	C27.794844,31.787878 27.787245,32.176704 27.807505,32.564072 
	C27.808046,32.574440 28.250992,32.579689 28.251770,32.569427 
	C28.281118,32.182739 28.282719,31.793947 27.798674,31.399250 
z"/>
<path fill="#F1D652" opacity="1.000000" stroke="none" 
	d="
M34.001789,66.994385 
	C31.997332,64.565086 29.992874,62.135792 27.935318,59.161060 
	C27.882219,58.615627 27.933867,58.184761 27.956425,57.827862 
	C27.639172,56.663788 27.299356,55.856617 26.955410,54.790600 
	C26.966230,54.359825 26.981184,54.187889 27.348976,54.040062 
	C28.931520,55.305168 30.085506,56.634857 31.409573,57.765347 
	C33.175243,59.272881 35.073109,60.625580 36.930145,62.037094 
	C36.946095,62.029404 36.965286,62.044998 36.979252,62.342270 
	C37.326118,63.097691 37.659019,63.555836 38.125809,64.304672 
	C38.509350,65.395607 38.759007,66.195854 38.734306,67.112488 
	C37.932663,67.505478 37.405376,67.782074 36.567352,68.025612 
	C35.505009,67.659828 34.753399,67.327103 34.001789,66.994385 
z"/>
<path fill="#FDF9E6" opacity="1.000000" stroke="none" 
	d="
M9.909237,51.013367 
	C7.849917,47.693882 9.646268,45.721016 12.446510,44.375092 
	C15.599433,42.859657 18.836573,41.476170 22.149446,40.372612 
	C22.827034,40.146896 24.491379,41.208645 24.844688,42.040550 
	C25.533518,43.662468 25.616999,45.541473 25.655098,47.592583 
	C24.599009,47.562965 23.838985,47.254787 22.888485,46.626328 
	C19.821825,46.261230 16.945648,46.216415 13.767376,46.233730 
	C12.695917,47.218304 11.926553,48.140743 11.017858,49.317810 
	C10.555429,50.052750 10.232333,50.533058 9.909237,51.013367 
z"/>
<path fill="#E2DF60" opacity="1.000000" stroke="none" 
	d="
M32.245861,14.729876 
	C29.378111,15.937698 26.517860,16.847866 23.057339,17.770065 
	C21.701805,17.532579 20.946543,17.283058 20.191280,17.033539 
	C22.272213,11.838840 27.531132,11.793036 31.704952,10.078175 
	C32.777969,9.637316 34.251537,10.171359 35.782639,10.840147 
	C36.015743,11.614883 36.007305,11.807009 35.713028,12.020456 
	C34.944798,12.307869 34.462399,12.573962 33.979996,12.840055 
	C33.404453,13.370775 32.828907,13.901497 32.245861,14.729876 
z"/>
<path fill="#D5B450" opacity="1.000000" stroke="none" 
	d="
M64.074127,66.154526 
	C61.913143,67.679367 59.632931,69.066414 57.642708,70.788589 
	C56.682888,71.619133 56.269054,73.080635 55.223137,74.598389 
	C53.897781,74.935852 52.957291,74.931358 52.008980,74.578568 
	C50.999622,72.813805 49.998074,71.397331 49.265854,69.708755 
	C54.345142,67.928329 59.155109,66.420021 63.988194,65.222778 
	C64.032249,65.740746 64.053185,65.947639 64.074127,66.154526 
z"/>
<path fill="#F1DC42" opacity="1.000000" stroke="none" 
	d="
M19.989079,17.371418 
	C20.946543,17.283058 21.701805,17.532579 22.737823,17.898018 
	C22.963678,18.465212 22.908781,18.916485 22.585001,19.971188 
	C22.820200,22.054861 23.324282,23.535110 23.828363,25.015358 
	C24.133253,25.800938 24.438141,26.586517 24.878649,27.663044 
	C23.604906,28.611610 22.195545,29.269230 20.479704,29.953455 
	C17.289888,25.976532 18.271063,21.851330 19.989079,17.371418 
z"/>
<path fill="#FDF8EB" opacity="1.000000" stroke="none" 
	d="
M34.002968,67.352997 
	C34.753399,67.327103 35.505009,67.659828 36.722290,68.291298 
	C38.084438,69.073204 38.980919,69.556351 39.936039,70.251205 
	C39.994682,70.462914 40.110706,70.886681 40.076756,71.305984 
	C40.099857,72.564034 40.156906,73.402779 40.183495,74.529831 
	C40.100250,75.200829 40.047466,75.583511 39.761425,76.045624 
	C39.224998,76.310974 39.056797,76.580963 39.023575,76.935036 
	C38.384766,78.358101 37.745956,79.781174 37.107147,81.204239 
	C36.459854,81.022079 35.812565,80.839928 35.165276,80.657768 
	C36.385098,76.112732 38.202042,71.482361 34.002968,67.352997 
z"/>
<path fill="#D8B94A" opacity="1.000000" stroke="none" 
	d="
M36.914200,62.044785 
	C35.073109,60.625580 33.175243,59.272881 31.409573,57.765347 
	C30.085506,56.634857 28.931520,55.305168 27.350756,54.032700 
	C26.999699,54.001232 26.996735,54.005356 26.999617,53.753944 
	C27.002550,53.335178 27.002604,53.167828 27.240463,52.856228 
	C27.962355,52.162571 28.446442,51.613167 28.930531,51.063766 
	C29.229935,51.191093 29.529339,51.318417 29.966970,52.000320 
	C31.085934,53.681366 32.066669,54.807835 33.047405,55.934303 
	C34.573448,56.778759 36.099491,57.623211 37.785282,59.061028 
	C37.601418,60.451191 37.257809,61.247990 36.914200,62.044785 
z"/>
<path fill="#C9AE5B" opacity="1.000000" stroke="none" 
	d="
M47.985695,28.995861 
	C47.985695,28.995861 47.550354,29.129051 47.130154,28.874607 
	C45.801853,29.066916 44.893757,29.513664 43.878464,30.168110 
	C43.771271,30.375807 43.570084,30.797750 43.247086,30.781517 
	C42.279621,30.812035 41.635151,30.858788 40.788902,30.834927 
	C40.587128,30.764313 40.161472,30.724072 39.893890,30.524504 
	C38.748703,30.230934 37.871090,30.136930 36.722908,29.998589 
	C36.271011,29.931200 36.089684,29.908152 35.766972,29.842590 
	C35.625587,29.800081 35.330002,29.769772 35.218327,29.621052 
	C35.106651,29.472330 34.923676,29.148483 35.048473,28.899458 
	C35.460464,28.422028 35.747654,28.193621 36.352676,27.974968 
	C37.451954,27.763918 38.233402,27.543112 39.014851,27.322308 
	C41.657902,27.220211 44.300953,27.118114 47.420586,27.365322 
	C47.926678,28.141706 47.956188,28.568783 47.985695,28.995861 
z"/>
<path fill="#CAB558" opacity="1.000000" stroke="none" 
	d="
M47.008560,79.836769 
	C45.097797,79.437050 43.187038,79.037331 41.379570,78.308441 
	C42.016815,77.693985 42.550766,77.408699 43.447132,77.105110 
	C44.538662,77.077950 45.267780,77.069084 46.358303,77.214172 
	C49.991318,77.141090 53.262924,76.914047 56.534531,76.687012 
	C56.636303,80.824188 53.408459,78.216820 51.102486,79.004990 
	C49.237213,79.286942 48.122887,79.561852 47.008560,79.836769 
z"/>
<path fill="#F3D655" opacity="1.000000" stroke="none" 
	d="
M56.432602,76.354668 
	C53.262924,76.914047 49.991318,77.141090 46.459663,76.948784 
	C46.466198,76.033241 46.732773,75.537048 47.417091,75.030594 
	C49.228821,74.989189 50.622810,74.958031 52.016796,74.926865 
	C52.957291,74.931358 53.897781,74.935852 55.182266,74.917908 
	C55.794395,75.271095 56.062534,75.646713 56.432602,76.354668 
z"/>
<path fill="#EDDA68" opacity="1.000000" stroke="none" 
	d="
M89.932297,47.937077 
	C89.806671,48.245258 89.625771,48.516586 88.952972,48.876656 
	C88.344223,49.000504 88.172081,48.998749 87.691826,48.983521 
	C86.974617,48.952431 86.565521,48.934814 86.133377,48.626266 
	C86.135986,47.948429 86.161652,47.561516 86.438194,46.981552 
	C87.441574,45.526848 88.194069,44.265194 89.281441,43.000504 
	C90.062683,42.995033 90.509056,42.992599 90.955429,42.990166 
	C90.898003,44.015873 90.840576,45.041580 90.548431,46.593620 
	C90.097298,47.350624 89.970154,47.623001 89.932297,47.937077 
z"/>
<path fill="#E9D952" opacity="1.000000" stroke="none" 
	d="
M91.152298,42.689507 
	C90.509056,42.992599 90.062683,42.995033 89.278519,42.597977 
	C88.846252,41.135910 88.751785,40.073330 88.751923,38.786438 
	C88.846519,38.562122 88.954300,38.087780 88.911713,37.894894 
	C88.775566,37.446980 88.616890,37.242493 88.273117,36.823975 
	C88.093483,36.375141 88.033821,36.190891 87.974152,36.006641 
	C88.652451,36.006672 89.330757,36.006702 90.346848,36.007805 
	C90.906151,38.135532 91.127663,40.262188 91.152298,42.689507 
z"/>
<path fill="#FBF9EE" opacity="1.000000" stroke="none" 
	d="
M41.001022,35.944084 
	C41.181965,35.994091 41.362911,36.044094 41.792225,36.229389 
	C41.728077,37.809250 41.415558,39.253815 41.103039,40.698383 
	C40.665440,40.766773 40.227837,40.835167 39.790234,40.903561 
	C39.192265,39.616966 38.594296,38.330376 38.355110,36.607063 
	C39.476273,36.094925 40.238647,36.019505 41.001022,35.944084 
z"/>
<path fill="#F4E88B" opacity="1.000000" stroke="none" 
	d="
M34.442829,12.910580 
	C34.462399,12.573962 34.944798,12.307869 36.169525,12.022926 
	C40.569908,11.724622 44.227970,11.445169 47.886028,11.165718 
	C47.546322,11.767529 47.223045,12.881180 46.864391,12.892693 
	C42.881306,13.020557 38.892742,12.977786 34.442829,12.910580 
z"/>
<path fill="#CAB96C" opacity="1.000000" stroke="none" 
	d="
M36.034843,27.965214 
	C35.747654,28.193621 35.460464,28.422028 34.695229,28.880028 
	C32.541565,28.314634 30.865938,27.519648 29.190311,26.724661 
	C29.553198,26.168743 29.916082,25.612825 30.578133,25.051958 
	C31.328800,25.388493 31.780302,25.729977 32.782284,26.339413 
	C34.231033,26.715250 35.129303,26.823135 36.027573,26.931023 
	C36.027573,26.931025 35.997719,27.023212 35.994987,27.278843 
	C35.992256,27.534472 36.034843,27.965214 36.034843,27.965214 
z"/>
<path fill="#D3BA62" opacity="1.000000" stroke="none" 
	d="
M64.410889,66.077339 
	C64.053185,65.947639 64.032249,65.740746 64.021545,64.939514 
	C64.353180,63.898636 64.674576,63.452087 65.296051,62.984550 
	C66.062355,62.633846 66.528572,62.304138 66.999641,61.730419 
	C67.004494,61.486408 67.008675,60.998306 67.293076,60.871643 
	C68.344147,60.457062 69.110817,60.169151 69.913124,59.915493 
	C69.948761,59.949745 70.020309,60.017956 70.020309,60.017960 
	C68.262756,62.012024 66.505203,64.006088 64.410889,66.077339 
z"/>
<path fill="#CAB64F" opacity="1.000000" stroke="none" 
	d="
M26.997919,54.008595 
	C26.981184,54.187889 26.966230,54.359825 26.961666,55.123756 
	C26.966787,56.161282 26.961521,56.606808 26.742931,57.104538 
	C26.237284,57.260521 26.027161,57.453686 25.899235,57.736244 
	C25.899235,57.736244 25.462025,57.865440 24.907322,57.825443 
	C23.896914,57.781258 23.441204,57.777073 22.768475,57.520508 
	C22.167149,57.050697 21.782846,56.833263 21.592091,56.335873 
	C23.022299,55.287464 24.258963,54.519016 25.864761,53.850445 
	C26.488176,53.968670 26.742456,53.987011 26.996735,54.005356 
	C26.996735,54.005356 26.999699,54.001232 26.997919,54.008595 
z"/>
<path fill="#DFD354" opacity="1.000000" stroke="none" 
	d="
M23.078964,46.946609 
	C23.838985,47.254787 24.599009,47.562965 25.646790,48.006073 
	C26.243782,48.561470 26.553017,48.981937 26.766806,49.922443 
	C26.026674,50.686520 25.381990,50.930557 24.493080,51.166382 
	C24.248852,51.158169 23.759287,51.122845 23.760067,50.781437 
	C22.853531,49.943115 21.946215,49.446201 21.056217,48.965847 
	C21.073534,48.982407 21.084490,48.935753 21.104393,48.698273 
	C21.124298,48.460796 21.142416,47.984516 21.391375,47.867611 
	C22.119877,47.482674 22.599421,47.214638 23.078964,46.946609 
z"/>
<path fill="#C3BB80" opacity="1.000000" stroke="none" 
	d="
M18.025957,59.768852 
	C15.987151,59.168335 13.948346,58.567814 12.249203,57.474651 
	C12.846522,56.907593 13.104179,56.833176 13.604457,56.809074 
	C13.847076,56.859386 14.345716,56.889618 14.499594,57.142792 
	C15.420278,57.521603 16.187084,57.647236 17.214960,57.872131 
	C17.656294,58.018047 17.836561,58.064693 18.015190,58.387878 
	C18.017689,59.032566 18.021824,59.400707 18.025957,59.768852 
z"/>
<path fill="#C6B76F" opacity="1.000000" stroke="none" 
	d="
M18.368093,59.793083 
	C18.021824,59.400707 18.017689,59.032566 18.241386,58.252399 
	C18.675362,57.565376 18.881506,57.290379 19.262953,56.885056 
	C20.091684,56.708435 20.745115,56.662132 21.398544,56.615833 
	C21.782846,56.833263 22.167149,57.050697 22.704287,57.785927 
	C22.801960,58.476616 22.746799,58.649506 22.691639,58.822395 
	C21.364502,59.154034 20.037365,59.485672 18.368093,59.793083 
z"/>
<path fill="#E6D969" opacity="1.000000" stroke="none" 
	d="
M9.958162,51.381680 
	C10.232333,50.533058 10.555429,50.052750 11.303907,49.330154 
	C12.171339,49.415058 12.613387,49.742256 13.073467,50.316734 
	C13.091497,50.564018 13.222917,51.043110 13.122631,51.267818 
	C13.022346,51.492527 12.859440,51.956928 12.638042,52.143425 
	C12.269174,52.884335 12.121702,53.438744 11.671976,53.993946 
	C10.967349,53.986591 10.564975,53.978447 10.162601,53.970299 
	C10.110764,53.230198 10.058925,52.490093 9.958162,51.381680 
z"/>
<path fill="#FFF8E2" opacity="1.000000" stroke="none" 
	d="
M40.990681,30.905540 
	C41.635151,30.858788 42.279621,30.812035 43.522285,30.790060 
	C44.409645,30.614344 44.698818,30.413849 45.318623,30.139465 
	C46.099560,30.050514 46.549858,30.035452 47.000160,30.020388 
	C47.256927,30.470327 47.513699,30.920267 47.886925,31.600986 
	C45.942760,32.182991 43.882141,32.534210 41.417519,32.530304 
	C41.005909,31.751963 40.998295,31.328753 40.990681,30.905540 
z"/>
<path fill="#E9DA74" opacity="1.000000" stroke="none" 
	d="
M47.438702,11.116486 
	C44.227970,11.445169 40.569908,11.724622 36.455357,12.001605 
	C36.007305,11.807009 36.015743,11.614883 36.048061,11.134893 
	C39.711754,10.920437 43.351562,10.993845 47.438702,11.116486 
z"/>
<path fill="#FBF9EE" opacity="1.000000" stroke="none" 
	d="
M46.125237,43.079597 
	C45.301083,43.983433 44.476929,44.887268 43.371300,45.914009 
	C43.779385,44.393951 44.468941,42.750980 45.542110,41.387619 
	C45.992229,42.138016 46.058731,42.608807 46.125237,43.079597 
z"/>
<path fill="#FCF9E5" opacity="1.000000" stroke="none" 
	d="
M87.999947,48.996994 
	C88.172081,48.998749 88.344223,49.000504 88.771683,49.042938 
	C88.498795,50.193382 87.970589,51.303143 86.959961,52.691490 
	C86.103966,52.960228 85.730370,52.950378 85.252960,52.644798 
	C85.052391,51.944550 84.955650,51.540039 84.912010,50.845337 
	C84.979378,50.358986 84.993645,50.162827 85.007217,49.986885 
	C85.006508,50.007107 84.966164,50.003918 85.237167,49.996231 
	C85.688133,49.971905 85.868103,49.955265 86.339783,49.936417 
	C87.087639,49.621803 87.543793,49.309399 87.999947,48.996994 
z"/>
<path fill="#BBBA6F" opacity="1.000000" stroke="none" 
	d="
M57.872215,13.009525 
	C59.001312,13.427446 59.772076,13.835811 60.542843,14.244176 
	C60.440407,14.548858 60.337967,14.853539 60.235531,15.158221 
	C58.475090,14.732102 56.714649,14.305984 54.954212,13.879866 
	C54.961571,13.675578 54.968933,13.471291 54.976292,13.267004 
	C55.822159,13.177992 56.668022,13.088980 57.872215,13.009525 
z"/>
<path fill="#D3B76C" opacity="1.000000" stroke="none" 
	d="
M29.287428,20.976738 
	C27.013933,18.686144 27.923803,17.595436 30.990774,17.728399 
	C30.642054,18.942034 30.097610,19.865223 29.287428,20.976738 
z"/>
<path fill="#D1B550" opacity="1.000000" stroke="none" 
	d="
M83.957184,54.875027 
	C82.600723,54.918415 81.244255,54.961803 79.105064,55.009922 
	C77.568466,55.027386 76.814590,55.040115 75.789978,55.035172 
	C75.338539,55.008999 75.157860,55.000488 75.252090,54.711658 
	C78.367577,53.968491 81.208153,53.505634 84.050186,53.348877 
	C84.020157,54.061657 83.988670,54.468342 83.957184,54.875027 
z"/>
<path fill="#FDF5CB" opacity="1.000000" stroke="none" 
	d="
M45.922096,36.582527 
	C46.687027,36.165478 47.479469,36.096436 48.641804,36.418045 
	C48.384102,37.538647 47.756504,38.268604 46.858261,39.006027 
	C46.407200,39.019119 46.226788,39.024734 46.046375,39.030354 
	C46.014118,38.330414 45.981861,37.630478 45.922096,36.582527 
z"/>
<path fill="#FBF9EE" opacity="1.000000" stroke="none" 
	d="
M36.034142,36.325214 
	C35.360523,37.088654 34.686909,37.852093 34.013290,38.615532 
	C33.674793,37.971371 33.336296,37.327213 33.378403,36.365284 
	C34.517380,36.140083 35.275761,36.232647 36.034142,36.325214 
z"/>
<path fill="#EADE8B" opacity="1.000000" stroke="none" 
	d="
M36.354462,36.255428 
	C35.275761,36.232647 34.517380,36.140083 33.376183,36.031174 
	C32.993362,36.014828 32.998878,35.999229 32.988277,35.769066 
	C32.977676,35.538902 32.906921,35.079945 32.906921,35.079945 
	C33.993114,35.043758 35.079308,35.007568 36.572239,34.955078 
	C38.158855,35.100456 39.338737,35.262138 40.759819,35.683952 
	C40.238647,36.019505 39.476273,36.094925 38.340370,36.261726 
	C37.536156,36.297287 37.105469,36.241463 36.354462,36.255428 
z"/>
<path fill="#E5C866" opacity="1.000000" stroke="none" 
	d="
M33.035484,55.583099 
	C32.066669,54.807835 31.085934,53.681366 30.080772,52.225273 
	C30.842649,52.207748 31.628952,52.519852 32.709625,52.976273 
	C33.010513,53.824360 33.017036,54.528126 33.035484,55.583099 
z"/>
<path fill="#CDBB81" opacity="1.000000" stroke="none" 
	d="
M84.295456,54.935547 
	C83.988670,54.468342 84.020157,54.061657 84.376831,53.321922 
	C84.920265,52.972755 85.138527,52.956642 85.356781,52.940529 
	C85.730370,52.950378 86.103966,52.960228 86.757751,52.949146 
	C86.236542,53.617496 85.435135,54.306782 84.295456,54.935547 
z"/>
<path fill="#E5C866" opacity="1.000000" stroke="none" 
	d="
M24.737307,51.174591 
	C25.381990,50.930557 26.026674,50.686520 26.878807,50.161461 
	C27.614210,50.101292 28.142166,50.322144 28.800323,50.803379 
	C28.446442,51.613167 27.962355,52.162571 26.868767,52.880997 
	C26.016941,53.103710 25.774614,53.157406 25.487404,52.938614 
	C25.207451,52.168949 24.972380,51.671768 24.737307,51.174591 
z"/>
<path fill="#D3BA62" opacity="1.000000" stroke="none" 
	d="
M74.977173,54.991974 
	C75.157860,55.000488 75.338539,55.008999 75.768608,55.270180 
	C76.017990,55.522850 75.996750,55.995392 75.996750,55.995392 
	C75.287971,56.379017 74.579201,56.762646 73.489670,57.130844 
	C73.108917,57.115414 72.952072,56.949654 73.002747,56.636742 
	C73.694664,55.879879 74.335922,55.435928 74.977173,54.991974 
z"/>
<path fill="#D1B56B" opacity="1.000000" stroke="none" 
	d="
M47.030609,29.808617 
	C46.549858,30.035452 46.099560,30.050514 45.070271,30.067511 
	C44.322742,30.033102 44.154202,29.996759 43.985657,29.960415 
	C44.893757,29.513664 45.801853,29.066916 46.903465,28.895309 
	C47.096981,29.170452 47.061062,29.596844 47.030609,29.808617 
z"/>
<path fill="#E0D27C" opacity="1.000000" stroke="none" 
	d="
M10.108877,54.264355 
	C10.564975,53.978447 10.967349,53.986591 11.783102,54.209419 
	C12.386104,54.697056 12.634365,54.897308 12.995841,55.318192 
	C13.154225,55.993935 13.258031,56.376350 13.361837,56.758762 
	C13.104179,56.833176 12.846522,56.907593 12.203677,57.101212 
	C11.818488,57.220421 11.845405,57.112854 11.790145,56.850349 
	C11.445442,56.405296 11.155998,56.222752 10.866554,56.040207 
	C10.596087,55.546272 10.325620,55.052341 10.108877,54.264355 
z"/>
<path fill="#D3BA62" opacity="1.000000" stroke="none" 
	d="
M73.187592,57.198044 
	C72.368774,58.105839 71.471275,58.931000 70.297043,59.887058 
	C70.020309,60.017956 69.948761,59.949745 69.955605,59.559120 
	C70.958992,58.428886 71.955536,57.689270 72.952072,56.949654 
	C72.952072,56.949654 73.108917,57.115414 73.187592,57.198044 
z"/>
<path fill="#D3BB7C" opacity="1.000000" stroke="none" 
	d="
M47.370625,79.919884 
	C48.122887,79.561852 49.237213,79.286942 50.714775,79.031364 
	C49.962902,79.368134 48.847794,79.685570 47.370625,79.919884 
z"/>
<path fill="#EBE4A1" opacity="1.000000" stroke="none" 
	d="
M46.013535,39.354237 
	C46.226788,39.024734 46.407200,39.019119 46.807831,39.343487 
	C47.021351,40.127888 47.014648,40.582298 47.007950,41.036713 
	C46.862793,41.591999 46.717632,42.147289 46.348854,42.891087 
	C46.058731,42.608807 45.992229,42.138016 45.857613,41.316345 
	C45.853230,40.536350 45.916958,40.107235 46.013535,39.354237 
z"/>
<path fill="#FFF8E2" opacity="1.000000" stroke="none" 
	d="
M48.289501,28.955681 
	C47.956188,28.568783 47.926678,28.141706 47.858727,27.395924 
	C48.373177,27.262411 48.926075,27.447601 49.478966,27.632790 
	C49.183746,28.060358 48.888527,28.487930 48.289501,28.955681 
z"/>
<path fill="#FAEDCC" opacity="1.000000" stroke="none" 
	d="
M35.787170,26.681545 
	C35.129303,26.823135 34.231033,26.715250 33.078972,26.375341 
	C33.732380,26.239571 34.639576,26.335819 35.787170,26.681545 
z"/>
<path fill="#DBBC89" opacity="1.000000" stroke="none" 
	d="
M76.337646,56.006691 
	C75.996750,55.995392 76.017990,55.522850 76.039352,55.287846 
	C76.814590,55.040115 77.568466,55.027386 78.699554,55.041737 
	C78.277359,55.385208 77.477943,55.701599 76.337646,56.006691 
z"/>
<path fill="#DCC846" opacity="1.000000" stroke="none" 
	d="
M43.084717,77.123405 
	C42.550766,77.408699 42.016815,77.693985 41.169243,78.005676 
	C40.515858,77.964111 40.256828,77.781563 40.090416,77.244553 
	C40.102287,77.004677 40.276310,76.925545 40.622612,76.945602 
	C41.674183,77.018242 42.379452,77.070824 43.084717,77.123405 
z"/>
<path fill="#DFC586" opacity="1.000000" stroke="none" 
	d="
M36.352676,27.974968 
	C36.034843,27.965214 35.992256,27.534472 35.968670,27.319521 
	C36.719666,27.105631 37.494244,27.106691 38.641838,27.215031 
	C38.233402,27.543112 37.451954,27.763918 36.352676,27.974968 
z"/>
<path fill="#FFF0D7" opacity="1.000000" stroke="none" 
	d="
M23.028229,58.862774 
	C22.746799,58.649506 22.801960,58.476616 22.921310,58.038307 
	C23.441204,57.777073 23.896914,57.781258 24.684097,57.871620 
	C24.465324,58.272911 23.915071,58.588032 23.028229,58.862774 
z"/>
<path fill="#E8D56A" opacity="1.000000" stroke="none" 
	d="
M39.245399,76.960251 
	C39.056797,76.580963 39.224998,76.310974 39.815605,76.290314 
	C40.160801,76.612228 40.218555,76.768890 40.276310,76.925545 
	C40.276310,76.925545 40.102287,77.004677 40.007069,77.015526 
	C39.911850,77.026375 39.467224,76.985466 39.245399,76.960251 
z"/>
<path fill="#FFF0D7" opacity="1.000000" stroke="none" 
	d="
M27.933867,58.184761 
	C27.933867,58.184761 27.882219,58.615627 27.825989,58.825424 
	C27.552679,58.972733 27.359161,58.867073 27.099350,58.445580 
	C27.009489,58.172913 26.994936,57.883186 27.225063,57.972923 
	C27.455189,58.062656 27.933867,58.184761 27.933867,58.184761 
z"/>
<path fill="#FBF9EE" opacity="1.000000" stroke="none" 
	d="
M32.680367,35.071014 
	C32.906921,35.079945 32.977676,35.538902 32.981857,35.771049 
	C32.696892,35.924652 32.452801,35.773407 32.135460,35.366940 
	C32.017166,35.184414 32.453812,35.062080 32.680367,35.071014 
z"/>
<path fill="#E7D292" opacity="1.000000" stroke="none" 
	d="
M26.166790,57.919296 
	C26.027161,57.453686 26.237284,57.260521 26.765064,57.311554 
	C27.000523,57.466354 26.994936,57.883186 26.994936,57.883186 
	C26.994936,57.883186 27.009489,58.172913 26.990921,58.318546 
	C26.793015,58.343571 26.613678,58.222958 26.166790,57.919296 
z"/>
<path fill="#FBF2AD" opacity="1.000000" stroke="none" 
	d="
M90.165413,47.841610 
	C89.970154,47.623001 90.097298,47.350624 90.487679,46.974434 
	C90.573936,47.134659 90.486237,47.440403 90.165413,47.841610 
z"/>
<path fill="#C3BB80" opacity="1.000000" stroke="none" 
	d="
M10.961448,56.304161 
	C11.155998,56.222752 11.445442,56.405296 11.840639,56.827454 
	C11.649709,56.900745 11.353024,56.734432 10.961448,56.304161 
z"/>
<path fill="#FEF5D5" opacity="1.000000" stroke="none" 
	d="
M37.890892,52.106014 
	C37.997082,52.387512 37.778255,52.618633 37.220123,52.753830 
	C37.136246,52.469685 37.364597,52.268932 37.890892,52.106014 
z"/>
<path fill="#F8F8FD" opacity="1.000000" stroke="none" 
	d="
M47.300060,41.174328 
	C47.014648,40.582298 47.021351,40.127888 47.078480,39.336014 
	C47.756504,38.268604 48.384102,37.538647 49.036964,36.468456 
	C52.474030,35.494595 55.885818,34.860970 59.657688,34.031193 
	C62.695103,33.548157 65.372444,33.261276 68.762466,32.966690 
	C69.980354,32.726139 70.485558,32.493290 70.990753,32.260437 
	C72.713120,32.206081 74.435493,32.151722 76.869820,32.381344 
	C79.085655,32.757442 80.589539,32.849556 82.093414,32.941669 
	C83.847115,33.877853 85.600815,34.814037 87.664337,35.878433 
	C88.033821,36.190891 88.093483,36.375141 88.188110,36.987423 
	C88.223061,37.415451 88.130196,37.772213 88.129303,38.010536 
	C88.202911,38.573566 88.379211,38.827530 88.657318,39.010750 
	C88.751785,40.073330 88.846252,41.135910 88.943649,42.601013 
	C88.194069,44.265194 87.441574,45.526848 86.120003,47.099602 
	C85.356003,48.275108 85.161087,49.139515 84.966171,50.003918 
	C84.966164,50.003918 85.006508,50.007107 84.694870,50.073372 
	C84.190376,50.236832 83.997520,50.334034 83.377960,50.376305 
	C77.065758,49.135460 72.096275,51.771595 66.716125,54.084599 
	C64.913986,53.995987 63.455910,53.952602 61.581245,53.943901 
	C59.771969,53.990486 58.379276,54.002384 56.986588,54.014278 
	C56.986588,54.014278 57.017200,53.946873 56.876175,53.636223 
	C55.522106,52.501007 54.309063,51.676441 52.929989,50.577579 
	C52.452679,49.520447 52.141399,48.737614 51.845440,47.632797 
	C50.992329,46.473091 50.123905,45.635368 49.255478,44.797642 
	C48.701042,43.635742 48.146606,42.473843 47.300060,41.174328 
z"/>
<path fill="#D9B14C" opacity="1.000000" stroke="none" 
	d="
M36.930145,62.037094 
	C37.257809,61.247990 37.601418,60.451191 37.971809,59.329731 
	C40.413994,60.341316 42.829399,61.677563 45.602837,63.026138 
	C45.960869,63.038467 45.985474,63.013500 46.087013,63.232128 
	C46.387936,63.717194 46.649612,63.888428 46.973583,63.964458 
	C49.048660,63.638821 51.123737,63.313187 53.857353,63.079384 
	C54.997978,63.469810 55.480072,63.768410 55.821800,64.392426 
	C54.700520,65.457520 53.751602,66.780655 52.733185,66.836510 
	C48.169155,67.086792 43.585339,66.976357 39.008663,66.996094 
	C38.759007,66.195854 38.509350,65.395607 38.106148,64.006187 
	C37.623497,62.959679 37.294392,62.502338 36.965286,62.044998 
	C36.965286,62.044998 36.946095,62.029404 36.930145,62.037094 
z"/>
<path fill="#F8DF8D" opacity="1.000000" stroke="none" 
	d="
M55.962166,64.067009 
	C55.480072,63.768410 54.997978,63.469810 54.253170,63.060234 
	C55.324169,60.560234 56.657887,58.171207 58.362991,55.394764 
	C59.822189,54.641304 60.910007,54.275257 61.997829,53.909210 
	C63.455910,53.952602 64.913986,53.995987 66.660912,54.418098 
	C66.638260,55.875828 66.326767,56.954838 65.704010,58.166718 
	C62.249218,60.222065 59.105690,62.144535 55.962166,64.067009 
z"/>
<path fill="#FAEFAD" opacity="1.000000" stroke="none" 
	d="
M51.830124,47.954777 
	C52.141399,48.737614 52.452679,49.520447 52.898033,50.989048 
	C53.007408,52.494923 52.982700,53.315029 52.957993,54.135139 
	C51.691875,52.332256 50.425758,50.529377 49.501854,48.372169 
	C50.506088,47.996822 51.168106,47.975800 51.830124,47.954777 
z"/>
<path fill="#F2E8BE" opacity="1.000000" stroke="none" 
	d="
M53.168732,54.383858 
	C52.982700,53.315029 53.007408,52.494923 53.064072,51.263344 
	C54.309063,51.676441 55.522106,52.501007 56.886627,53.600708 
	C55.818562,54.128094 54.599018,54.380337 53.168732,54.383858 
z"/>
<path fill="#F0E496" opacity="1.000000" stroke="none" 
	d="
M51.845440,47.632797 
	C51.168106,47.975800 50.506088,47.996822 49.514412,48.031219 
	C49.150440,47.229519 49.116119,46.414440 49.168640,45.198502 
	C50.123905,45.635368 50.992329,46.473091 51.845440,47.632797 
z"/>
<path fill="#E1DD7F" opacity="1.000000" stroke="none" 
	d="
M61.581245,53.943901 
	C60.910007,54.275257 59.822189,54.641304 58.363953,55.012650 
	C57.669762,54.915119 57.405998,54.727795 57.094414,54.235130 
	C58.379276,54.002384 59.771969,53.990486 61.581245,53.943901 
z"/>
<path fill="#EFD95E" opacity="1.000000" stroke="none" 
	d="
M46.863770,63.754147 
	C46.649612,63.888428 46.387936,63.717194 46.082314,63.236763 
	C46.295273,63.107063 46.554565,63.280750 46.863770,63.754147 
z"/>
<path fill="#FFF9DA" opacity="1.000000" stroke="none" 
	d="
M70.741852,32.157288 
	C70.485558,32.493290 69.980354,32.726139 69.185120,32.947182 
	C69.106590,32.666279 69.318115,32.397186 69.756821,32.002575 
	C70.153656,31.936085 70.323303,31.995113 70.741852,32.157288 
z"/>
<path fill="#FDF7CC" opacity="1.000000" stroke="none" 
	d="
M40.788902,30.834927 
	C40.998295,31.328753 41.005909,31.751963 41.027046,32.490501 
	C39.915749,32.637135 38.790928,32.468441 37.322895,32.232185 
	C36.534184,32.096886 36.088688,32.029144 35.352177,31.619497 
	C35.090664,31.103394 35.120167,30.929195 35.332260,30.669407 
	C35.740978,30.404585 35.872143,30.171679 35.908356,29.885101 
	C36.089684,29.908152 36.271011,29.931200 36.959984,30.247131 
	C38.365578,30.601366 39.263527,30.662718 40.161472,30.724072 
	C40.161472,30.724072 40.587128,30.764313 40.788902,30.834927 
z"/>
<path fill="#FFF5DC" opacity="1.000000" stroke="none" 
	d="
M35.149666,30.754997 
	C35.120167,30.929195 35.090664,31.103394 35.023827,31.539200 
	C32.424995,30.735979 29.863499,29.671150 27.074999,28.343191 
	C27.495733,27.826868 28.143469,27.573673 28.990757,27.022572 
	C30.865938,27.519648 32.541565,28.314634 34.570435,29.129051 
	C34.923676,29.148483 35.106651,29.472330 35.150841,29.864096 
	C35.179905,30.422241 35.164783,30.588619 35.149666,30.754997 
z"/>
<path fill="#E2DF60" opacity="1.000000" stroke="none" 
	d="
M23.886517,24.645775 
	C23.324282,23.535110 22.820200,22.054861 22.529593,20.307671 
	C23.143600,21.452549 23.544134,22.864370 23.886517,24.645775 
z"/>
<path fill="#FFF9DA" opacity="1.000000" stroke="none" 
	d="
M81.839096,32.656914 
	C80.589539,32.849556 79.085655,32.757442 77.298660,32.429047 
	C78.538628,32.252563 80.061699,32.312359 81.839096,32.656914 
z"/>
<path fill="#F1DC42" opacity="1.000000" stroke="none" 
	d="
M28.043360,31.402344 
	C28.282719,31.793947 28.281118,32.182739 28.251770,32.569427 
	C28.250992,32.579689 27.808046,32.574440 27.807505,32.564072 
	C27.787245,32.176704 27.794844,31.787878 28.043360,31.402344 
z"/>
<path fill="#EFD04F" opacity="1.000000" stroke="none" 
	d="
M55.821800,64.392426 
	C59.105690,62.144535 62.249218,60.222065 65.828613,58.456779 
	C66.512550,59.408749 66.760612,60.203529 67.008675,60.998306 
	C67.008675,60.998306 67.004494,61.486408 66.702713,61.761745 
	C65.932610,62.359901 65.464294,62.682720 64.995972,63.005543 
	C64.674576,63.452087 64.353180,63.898636 63.998432,64.628448 
	C59.155109,66.420021 54.345142,67.928329 48.854836,69.708115 
	C45.408798,69.999557 42.643097,70.019531 39.877396,70.039505 
	C38.980919,69.556351 38.084438,69.073204 37.033028,68.324364 
	C37.405376,67.782074 37.932663,67.505478 38.734306,67.112488 
	C43.585339,66.976357 48.169155,67.086792 52.733185,66.836510 
	C53.751602,66.780655 54.700520,65.457520 55.821800,64.392426 
z"/>
<path fill="#DFC950" opacity="1.000000" stroke="none" 
	d="
M27.225063,57.972923 
	C26.994936,57.883186 27.000523,57.466354 26.978390,57.259342 
	C26.961521,56.606808 26.966787,56.161282 26.965797,55.382599 
	C27.299356,55.856617 27.639172,56.663788 27.956425,57.827862 
	C27.933867,58.184761 27.455189,58.062656 27.225063,57.972923 
z"/>
<path fill="#D8B94A" opacity="1.000000" stroke="none" 
	d="
M36.979252,62.342270 
	C37.294392,62.502338 37.623497,62.959679 37.972263,63.715496 
	C37.659019,63.555836 37.326118,63.097691 36.979252,62.342270 
z"/>
<path fill="#E6DB67" opacity="1.000000" stroke="none" 
	d="
M22.888485,46.626328 
	C22.599421,47.214638 22.119877,47.482674 21.076881,47.906799 
	C20.311262,48.121223 20.109095,48.179550 19.550840,48.173912 
	C17.809938,48.463482 16.425125,48.817020 14.785740,49.105072 
	C14.356033,49.033428 14.180901,49.027271 14.005125,48.663589 
	C14.026145,47.594578 14.047807,46.883087 14.069469,46.171600 
	C16.945648,46.216415 19.821825,46.261230 22.888485,46.626328 
z"/>
<path fill="#E7DD8B" opacity="1.000000" stroke="none" 
	d="
M13.767376,46.233734 
	C14.047807,46.883087 14.026145,47.594578 13.905980,48.886368 
	C13.619534,49.745861 13.368853,49.946789 13.055435,50.069454 
	C12.613387,49.742256 12.171339,49.415058 11.443239,49.075523 
	C11.926553,48.140743 12.695917,47.218304 13.767376,46.233734 
z"/>
<path fill="#DAB141" opacity="1.000000" stroke="none" 
	d="
M39.936039,70.251205 
	C42.643097,70.019531 45.408798,69.999557 48.585514,69.980225 
	C49.998074,71.397331 50.999622,72.813805 52.008980,74.578568 
	C50.622810,74.958031 49.228821,74.989189 47.047821,74.971642 
	C44.555344,74.628166 42.849884,74.333405 41.086334,73.693802 
	C40.722401,72.528198 40.416553,71.707443 40.110706,70.886681 
	C40.110706,70.886681 39.994682,70.462914 39.936039,70.251205 
z"/>
<path fill="#F3D93E" opacity="1.000000" stroke="none" 
	d="
M41.144424,74.038635 
	C42.849884,74.333405 44.555344,74.628166 46.630077,74.981888 
	C46.732773,75.537048 46.466198,76.033241 46.098259,76.794830 
	C45.267780,77.069084 44.538662,77.077950 43.447132,77.105110 
	C42.379452,77.070824 41.674183,77.018242 40.622612,76.945602 
	C40.218555,76.768890 40.160801,76.612228 40.048866,76.210876 
	C40.047466,75.583511 40.100250,75.200829 40.414291,74.471893 
	C40.675549,74.125641 41.144424,74.038635 41.144424,74.038635 
z"/>
<path fill="#FAE0AE" opacity="1.000000" stroke="none" 
	d="
M41.086334,73.693802 
	C41.144424,74.038635 40.675549,74.125641 40.444756,74.183578 
	C40.156906,73.402779 40.099857,72.564034 40.076756,71.305984 
	C40.416553,71.707443 40.722401,72.528198 41.086334,73.693802 
z"/>
<path fill="#F8DF82" opacity="1.000000" stroke="none" 
	d="
M25.532286,53.211098 
	C25.774614,53.157406 26.016941,53.103710 26.630960,53.025249 
	C27.002604,53.167828 27.002550,53.335178 26.999617,53.753944 
	C26.742456,53.987011 26.488176,53.968670 25.875675,53.717068 
	C25.517450,53.483810 25.532286,53.211098 25.532286,53.211098 
z"/>
<path fill="#EEDB99" opacity="1.000000" stroke="none" 
	d="
M39.893890,30.524504 
	C39.263527,30.662718 38.365578,30.601366 37.230556,30.291470 
	C37.871090,30.136930 38.748703,30.230934 39.893890,30.524504 
z"/>
<path fill="#EEDB99" opacity="1.000000" stroke="none" 
	d="
M35.332260,30.669407 
	C35.164783,30.588619 35.179905,30.422241 35.262512,30.012817 
	C35.330002,29.769772 35.625587,29.800081 35.766972,29.842590 
	C35.872143,30.171679 35.740978,30.404585 35.332260,30.669407 
z"/>
<path fill="#FFEBCC" opacity="1.000000" stroke="none" 
	d="
M43.878464,30.168110 
	C44.154202,29.996759 44.322742,30.033102 44.739635,30.141399 
	C44.698818,30.413849 44.409645,30.614344 43.845280,30.806293 
	C43.570084,30.797750 43.771271,30.375807 43.878464,30.168110 
z"/>
<path fill="#F5EDB5" opacity="1.000000" stroke="none" 
	d="
M85.237167,49.996231 
	C85.161087,49.139515 85.356003,48.275108 85.869118,47.292656 
	C86.161652,47.561516 86.135986,47.948429 86.089294,48.880356 
	C86.061531,49.596458 86.054802,49.767544 86.048080,49.938625 
	C85.868103,49.955265 85.688133,49.971905 85.237167,49.996231 
z"/>
<path fill="#EBDC83" opacity="1.000000" stroke="none" 
	d="
M86.339783,49.936417 
	C86.054802,49.767544 86.061531,49.596458 86.112350,49.171284 
	C86.565521,48.934814 86.974617,48.952431 87.691826,48.983521 
	C87.543793,49.309399 87.087639,49.621803 86.339783,49.936417 
z"/>
<path fill="#E9DB58" opacity="1.000000" stroke="none" 
	d="
M88.130196,37.772213 
	C88.130196,37.772213 88.223061,37.415451 88.308075,37.251999 
	C88.616890,37.242493 88.775566,37.446980 88.704742,37.818668 
	C88.540367,37.935329 88.130196,37.772213 88.130196,37.772213 
z"/>
<path fill="#FFEFD4" opacity="1.000000" stroke="none" 
	d="
M88.129303,38.010536 
	C88.130196,37.772213 88.540367,37.935329 88.747330,38.011555 
	C88.954300,38.087780 88.846519,38.562122 88.751923,38.786438 
	C88.379211,38.827530 88.202911,38.573566 88.129303,38.010536 
z"/>
<path fill="#EED954" opacity="1.000000" stroke="none" 
	d="
M67.293076,60.871643 
	C66.760612,60.203529 66.512550,59.408749 66.139877,58.323906 
	C66.326767,56.954838 66.638260,55.875828 67.004967,54.463322 
	C72.096275,51.771595 77.065758,49.135460 83.523941,50.532349 
	C84.321243,50.931355 84.575333,51.062092 84.858910,51.135529 
	C84.955650,51.540039 85.052391,51.944550 85.252960,52.644798 
	C85.138527,52.956642 84.920265,52.972755 84.375366,53.015827 
	C81.208153,53.505634 78.367577,53.968491 75.252090,54.711662 
	C74.335922,55.435928 73.694664,55.879879 73.002747,56.636742 
	C71.955536,57.689270 70.958992,58.428886 69.919968,59.524872 
	C69.110817,60.169151 68.344147,60.457062 67.293076,60.871643 
z"/>
<path fill="#D5B450" opacity="1.000000" stroke="none" 
	d="
M65.296051,62.984550 
	C65.464294,62.682720 65.932610,62.359901 66.697861,62.005756 
	C66.528572,62.304138 66.062355,62.633846 65.296051,62.984550 
z"/>
<path fill="#FAF8FB" opacity="1.000000" stroke="none" 
	d="
M25.487404,52.938614 
	C25.532286,53.211098 25.517450,53.483810 25.506538,53.617188 
	C24.258963,54.519016 23.022299,55.287464 21.592091,56.335873 
	C20.745115,56.662132 20.091684,56.708435 18.963928,56.877064 
	C17.977695,57.257217 17.465794,57.515041 16.953892,57.772865 
	C16.187084,57.647236 15.420278,57.521603 14.688370,56.922829 
	C14.201814,55.612595 13.680359,54.775497 13.114166,53.607357 
	C12.999434,52.836517 12.929437,52.396725 12.859440,51.956928 
	C12.859440,51.956928 13.022346,51.492527 13.405163,51.209656 
	C14.205422,50.341373 14.622868,49.755966 15.040312,49.170555 
	C16.425125,48.817020 17.809938,48.463482 19.696487,48.363441 
	C20.447689,48.850811 20.743113,48.957085 21.084490,48.935753 
	C21.084490,48.935753 21.073534,48.982407 21.084854,49.301476 
	C21.983877,50.121315 22.871582,50.622082 23.759287,51.122845 
	C23.759287,51.122845 24.248852,51.158169 24.493080,51.166382 
	C24.972380,51.671768 25.207451,52.168949 25.487404,52.938614 
z"/>
<path fill="#FEFBCD" opacity="1.000000" stroke="none" 
	d="
M23.760067,50.781437 
	C22.871582,50.622082 21.983877,50.121315 21.067535,49.284920 
	C21.946215,49.446201 22.853531,49.943115 23.760067,50.781437 
z"/>
<path fill="#FFF7C0" opacity="1.000000" stroke="none" 
	d="
M21.104393,48.698273 
	C20.743113,48.957085 20.447689,48.850811 20.052576,48.427406 
	C20.109095,48.179550 20.311262,48.121223 20.827923,48.023705 
	C21.142416,47.984516 21.124298,48.460796 21.104393,48.698273 
z"/>
<path fill="#FFF7DB" opacity="1.000000" stroke="none" 
	d="
M13.158904,53.938400 
	C13.680359,54.775497 14.201814,55.612595 14.534492,56.669655 
	C14.345716,56.889618 13.847076,56.859386 13.604457,56.809074 
	C13.258031,56.376350 13.154225,55.993935 13.040075,55.044441 
	C13.072790,54.297703 13.115848,54.118053 13.158904,53.938400 
z"/>
<path fill="#FAF0C5" opacity="1.000000" stroke="none" 
	d="
M17.214960,57.872131 
	C17.465794,57.515041 17.977695,57.257217 18.788624,57.007385 
	C18.881506,57.290379 18.675362,57.565376 18.243023,57.975861 
	C17.836561,58.064693 17.656294,58.018047 17.214960,57.872131 
z"/>
<path fill="#FDFAE2" opacity="1.000000" stroke="none" 
	d="
M14.785739,49.105072 
	C14.622868,49.755966 14.205422,50.341373 13.505447,50.984947 
	C13.222917,51.043110 13.091497,50.564018 13.073466,50.316734 
	C13.368853,49.946789 13.619534,49.745861 13.906624,49.243889 
	C14.180901,49.027271 14.356033,49.033428 14.785739,49.105072 
z"/>
<path fill="#FAEC95" opacity="1.000000" stroke="none" 
	d="
M13.114166,53.607357 
	C13.115848,54.118053 13.072790,54.297703 12.985497,54.751110 
	C12.634365,54.897308 12.386104,54.697056 12.085356,54.208626 
	C12.121702,53.438744 12.269174,52.884335 12.638042,52.143425 
	C12.929437,52.396725 12.999434,52.836517 13.114166,53.607357 
z"/>
<path fill="#FAEBAE" opacity="1.000000" stroke="none" 
	d="
M84.912010,50.845337 
	C84.575333,51.062092 84.321243,50.931355 83.950653,50.587280 
	C83.997520,50.334034 84.190376,50.236832 84.695572,50.053150 
	C84.993645,50.162827 84.979378,50.358986 84.912010,50.845337 
z"/>
</svg>